# xmcd CD database file
#
# Track frame offsets:
#	200
#	19097
#	32725
#	51137
#
# Disc length: 974 seconds
#
# Revision: 6
# Processed by: cddbd v1.5.2PL0 Copyright (c) Steve Scherf et al.
# Submitted via: CDex 1.50Beta7
#
DISCID=2903cc04
DTITLE=Gary Moore - Still got the blues (for you)
DYEAR=1990
DGENRE=Rock
TTITLE0=Still got the blues (for you)
TTITLE1=Left me with the blues
TTITLE2=Further on up the road
TTITLE3=The sky is crying
EXTD=YEAR: 1990
EXTT0=
EXTT1=
EXTT2=
EXTT3=
PLAYORDER=
